<svg width="293" height="199" viewBox="0 0 293 199" fill="none" xmlns="http://www.w3.org/2000/svg">
<rect width="150" height="150" transform="matrix(0.94693 -0.321439 0 1 113.786 48.8897)" fill="url(#paint0_linear_0_3)"/>
<rect width="2.12766" height="22.0745" transform="matrix(0.94693 -0.321439 0 1 210.649 131.213)" fill="#5A3816"/>
<rect width="2.12766" height="11.9681" transform="matrix(-4.13916e-08 -1 0.94693 -0.32144 205.864 154.912)" fill="#5A3816"/>
<path fill-rule="evenodd" clip-rule="evenodd" d="M204.16 126.235C203.957 127.4 203.849 128.597 203.849 129.798C203.849 136.555 207.288 140.865 211.53 139.425C215.772 137.985 219.211 131.34 219.211 124.583C219.211 123.382 219.103 122.259 218.9 121.231L204.16 126.235Z" fill="#5A3816"/>
<path fill-rule="evenodd" clip-rule="evenodd" d="M232.311 129.673C232.174 129.557 232.03 129.448 231.879 129.347C229.696 127.889 226.766 128.559 224.624 130.768C225.269 124.011 230.485 117.144 236.823 114.993C243.12 112.855 248.309 116.125 249.009 122.365C248.934 122.332 248.857 122.302 248.779 122.274C246.372 121.423 243.282 123.313 241.339 126.616C240.633 125.741 239.601 125.25 238.398 125.261V139.36C238.398 141.816 236.512 144.447 234.186 145.237C231.86 146.027 229.974 144.675 229.974 142.219V141.149C229.974 140.403 230.547 139.604 231.254 139.364C231.96 139.124 232.533 139.534 232.533 140.281V141.35C232.533 142.314 233.273 142.844 234.186 142.535C235.099 142.225 235.839 141.192 235.839 140.228V125.974C234.386 126.758 233.131 128.106 232.311 129.673Z" fill="#5A3816"/>
<path fill-rule="evenodd" clip-rule="evenodd" d="M137.063 170.302L129.956 161.269L122.849 175.127L126.758 173.8V183.182L133.154 181.011V171.629L137.063 170.302Z" fill="#5A3816"/>
<rect width="150" height="60" transform="matrix(0.94693 -0.321439 0.614147 0.789191 113.786 48.8897)" fill="url(#paint1_linear_0_3)"/>
<rect width="120" height="150" transform="matrix(0.942641 0.333807 0 1 0.848785 8.85615)" fill="url(#paint2_linear_0_3)"/>
<rect width="6.0241" height="24.0964" transform="matrix(0.942641 0.333807 0 1 9.10173 130.779)" fill="#6D441F"/>
<rect width="1.80723" height="24.0964" transform="matrix(0.942641 0.333807 0 1 17.0517 133.594)" fill="#6D441F"/>
<rect width="6.0241" height="24.0964" transform="matrix(0.942641 0.333807 0 1 21.0267 135.002)" fill="#6D441F"/>
<rect width="3.01205" height="24.0964" transform="matrix(0.942641 0.333807 0 1 28.9767 137.817)" fill="#6D441F"/>
<rect width="1.20482" height="24.0964" transform="matrix(0.942641 0.333807 0 1 34.0874 139.627)" fill="#6D441F"/>
<rect width="6.62651" height="24.0964" transform="matrix(0.942641 0.333807 0 1 37.4945 140.833)" fill="#6D441F"/>
<rect width="3.61446" height="24.0964" transform="matrix(0.942641 0.333807 0 1 46.0124 143.849)" fill="#6D441F"/>
<rect width="1.80723" height="24.0964" transform="matrix(0.942641 0.333807 0 1 51.691 145.86)" fill="#6D441F"/>
<rect width="0.60241" height="24.0964" transform="matrix(0.942641 0.333807 0 1 55.6659 147.268)" fill="#6D441F"/>
<defs>
<linearGradient id="paint0_linear_0_3" x1="75" y1="0" x2="75" y2="150" gradientUnits="userSpaceOnUse">
<stop stop-color="#B2793D"/>
<stop offset="1" stop-color="#96602E"/>
</linearGradient>
<linearGradient id="paint1_linear_0_3" x1="75" y1="-1.93451e-07" x2="77.4744" y2="59.8978" gradientUnits="userSpaceOnUse">
<stop stop-color="#D79B56"/>
<stop offset="1" stop-color="#FFBC71"/>
</linearGradient>
<linearGradient id="paint2_linear_0_3" x1="60" y1="0" x2="60" y2="150" gradientUnits="userSpaceOnUse">
<stop stop-color="#CF9350"/>
<stop offset="1" stop-color="#AA7239"/>
</linearGradient>
</defs>
</svg>
