<svg width="800" height="313" viewBox="0 0 800 313" fill="none" xmlns="http://www.w3.org/2000/svg">
<path fill-rule="evenodd" clip-rule="evenodd" d="M0 228.769C0 219.104 7.41921 208.75 16.5713 205.644L619.766 0.886811C623.76 -0.468977 627.424 -0.220552 630.285 1.29341C631.003 1.50193 631.687 1.77812 632.329 2.11814C633.047 2.32659 633.73 2.60266 634.372 2.94252C635.091 3.15107 635.775 3.42735 636.417 3.76752C637.136 3.97604 637.819 4.25223 638.461 4.59225C639.18 4.80077 639.863 5.07695 640.505 5.41696C641.224 5.62547 641.907 5.90165 642.549 6.24167C643.267 6.45012 643.95 6.72619 644.593 7.06606C645.311 7.2746 645.995 7.55089 646.638 7.89106C647.356 8.09958 648.039 8.37576 648.682 8.71578C649.4 8.9243 650.083 9.20048 650.726 9.54051C651.444 9.74902 652.127 10.0252 652.77 10.3652C653.488 10.5736 654.17 10.8497 654.813 11.1896C655.531 11.3981 656.215 11.6744 656.858 12.0146C657.576 12.2231 658.259 12.4993 658.902 12.8393C659.62 13.0478 660.303 13.324 660.946 13.664C661.664 13.8726 662.347 14.1487 662.99 14.4887C663.708 14.6972 664.391 14.9733 665.033 15.3131C665.752 15.5217 666.435 15.798 667.078 16.1381C667.796 16.3467 668.479 16.6228 669.122 16.9629C669.84 17.1714 670.523 17.4475 671.166 17.7875C671.884 17.996 672.567 18.2722 673.21 18.6122C673.928 18.8207 674.611 19.0968 675.253 19.4366C675.972 19.6452 676.655 19.9215 677.298 20.2617C678.017 20.4702 678.7 20.7464 679.342 21.0864C680.061 21.2949 680.744 21.5711 681.386 21.9111C682.104 22.1196 682.787 22.3956 683.43 22.7355C684.148 22.944 684.832 23.2203 685.475 23.5605C686.193 23.769 686.876 24.0452 687.519 24.3852C688.237 24.5937 688.92 24.8699 689.562 25.2099C690.281 25.4184 690.964 25.6946 691.607 26.0346C692.325 26.2431 693.007 26.5192 693.65 26.859C694.369 27.0676 695.052 27.3439 695.695 27.684C696.413 27.8926 697.096 28.1687 697.739 28.5088C698.457 28.7173 699.14 28.9935 699.783 29.3335C700.501 29.542 701.184 29.8181 701.827 30.1581C702.545 30.3666 703.228 30.6427 703.87 30.9826C704.589 31.1911 705.272 31.4674 705.915 31.8076C706.633 32.0161 707.316 32.2923 707.959 32.6323C708.677 32.8408 709.361 33.117 710.003 33.4571C710.721 33.6656 711.404 33.9418 712.047 34.2818C712.765 34.4902 713.448 34.7663 714.09 35.1061C714.809 35.3147 715.492 35.591 716.135 35.9312C716.854 36.1397 717.537 36.4159 718.179 36.7559C718.898 36.9644 719.581 37.2406 720.223 37.5806C720.941 37.7891 721.625 38.0653 722.267 38.4053C722.985 38.6137 723.668 38.8898 724.31 39.2297C725.029 39.4382 725.712 39.7145 726.355 40.0547C727.074 40.2632 727.757 40.5394 728.399 40.8794C729.118 41.0879 729.801 41.3641 730.443 41.7041C731.162 41.9126 731.845 42.1888 732.487 42.5288C733.205 42.7373 733.888 43.0133 734.531 43.3532C735.249 43.5618 735.933 43.8381 736.576 44.1782C737.294 44.3868 737.977 44.6629 738.62 45.003C739.338 45.2115 740.021 45.4877 740.664 45.8277C741.382 46.0362 742.065 46.3124 742.708 46.6524C743.426 46.8608 744.109 47.1369 744.751 47.4768C745.47 47.6853 746.153 47.9616 746.796 48.3018C747.514 48.5103 748.197 48.7865 748.84 49.1265C749.558 49.335 750.241 49.6112 750.884 49.9512C751.602 50.1597 752.285 50.4359 752.928 50.7759C753.646 50.9844 754.329 51.2604 754.971 51.6003C755.69 51.8088 756.373 52.0851 757.016 52.4253C757.734 52.6338 758.417 52.91 759.06 53.2501C759.778 53.4586 760.461 53.7347 761.104 54.0747C761.822 54.2832 762.505 54.5594 763.148 54.8994C763.866 55.1079 764.549 55.384 765.191 55.7239C765.91 55.9324 766.593 56.2087 767.236 56.5489C767.955 56.7574 768.638 57.0336 769.28 57.3736C769.999 57.5821 770.682 57.8583 771.324 58.1983C772.042 58.4067 772.725 58.6828 773.368 59.0227C774.086 59.2312 774.77 59.5075 775.413 59.8477C776.131 60.0562 776.814 60.3324 777.457 60.6724C778.175 60.8809 778.858 61.1571 779.501 61.4971C780.219 61.7056 780.902 61.9818 781.544 62.3218C782.263 62.5303 782.945 62.8063 783.588 63.1462C784.306 63.3548 784.99 63.6311 785.633 63.9712C786.351 64.1797 787.034 64.4559 787.677 64.7959C788.395 65.0045 789.078 65.2806 789.721 65.6206C790.439 65.8292 791.122 66.1053 791.765 66.4454C796.613 67.8529 799.861 72.3439 799.861 78.7383C799.861 88.4032 792.441 98.7567 783.289 101.863L180.095 306.62C176.101 307.976 172.437 307.728 169.575 306.214C168.857 306.005 168.174 305.729 167.531 305.389C166.813 305.181 166.13 304.904 165.487 304.564C164.769 304.356 164.086 304.08 163.444 303.74C162.726 303.531 162.043 303.255 161.4 302.915C160.682 302.707 159.998 302.43 159.355 302.09C158.637 301.882 157.954 301.606 157.311 301.266C156.593 301.057 155.91 300.781 155.267 300.441C154.549 300.232 153.866 299.956 153.223 299.616C152.505 299.408 151.822 299.132 151.18 298.792C150.461 298.583 149.778 298.307 149.135 297.967C148.417 297.758 147.734 297.482 147.091 297.142C146.373 296.933 145.69 296.657 145.047 296.317C144.329 296.109 143.646 295.833 143.004 295.493C142.285 295.284 141.602 295.008 140.959 294.668C140.24 294.459 139.557 294.183 138.915 293.843C138.197 293.635 137.513 293.358 136.871 293.018C136.153 292.81 135.469 292.534 134.827 292.194C134.109 291.985 133.426 291.709 132.783 291.369C132.065 291.161 131.381 290.885 130.738 290.544C130.02 290.336 129.337 290.06 128.694 289.72C127.976 289.511 127.293 289.235 126.651 288.895C125.932 288.686 125.249 288.41 124.607 288.07C123.889 287.862 123.206 287.586 122.563 287.246C121.845 287.037 121.161 286.761 120.518 286.421C119.8 286.212 119.117 285.936 118.474 285.596C117.756 285.388 117.073 285.111 116.43 284.771C115.712 284.563 115.029 284.287 114.386 283.947C113.668 283.738 112.985 283.462 112.343 283.122C111.624 282.914 110.941 282.637 110.298 282.297C109.58 282.089 108.897 281.813 108.254 281.473C107.536 281.264 106.853 280.988 106.21 280.648C105.492 280.439 104.809 280.163 104.166 279.823C103.448 279.615 102.765 279.339 102.123 278.999C101.404 278.79 100.721 278.514 100.078 278.174C99.3595 277.965 98.6764 277.689 98.0338 277.349C97.3156 277.14 96.6325 276.864 95.9899 276.524C95.2716 276.316 94.5885 276.04 93.9459 275.7C93.2279 275.491 92.545 275.215 91.9025 274.875C91.1839 274.667 90.5004 274.39 89.8575 274.05C89.1392 273.842 88.456 273.565 87.8133 273.225C87.0952 273.017 86.4122 272.741 85.7697 272.401C85.0515 272.192 84.3684 271.916 83.7257 271.576C83.0078 271.368 82.3249 271.091 81.6824 270.752C80.9638 270.543 80.2803 270.267 79.6373 269.927C78.9191 269.718 78.236 269.442 77.5935 269.102C76.8752 268.893 76.1921 268.617 75.5495 268.277C74.8313 268.069 74.1482 267.793 73.5056 267.453C72.7875 267.244 72.1046 266.968 71.4621 266.628C70.7435 266.42 70.06 266.143 69.4171 265.803C68.6989 265.595 68.0158 265.318 67.3732 264.978C66.6549 264.77 65.9718 264.494 65.3292 264.154C64.611 263.945 63.9279 263.669 63.2853 263.329C62.5673 263.121 61.8844 262.844 61.242 262.505C60.5234 262.296 59.8399 262.02 59.197 261.68C58.4787 261.471 57.7956 261.195 57.153 260.855C56.4347 260.646 55.7516 260.37 55.109 260.03C54.391 259.822 53.7081 259.546 53.0656 259.206C52.347 258.997 51.6636 258.721 51.0206 258.381C50.3024 258.172 49.6193 257.896 48.9767 257.556C48.2585 257.347 47.5754 257.071 46.9328 256.731C46.2145 256.523 45.5315 256.247 44.8888 255.907C44.1708 255.698 43.4879 255.422 42.8455 255.082C42.1269 254.874 41.4434 254.597 40.8005 254.257C40.0822 254.049 39.3991 253.772 38.7565 253.432C38.0382 253.224 37.3551 252.948 36.7125 252.608C35.9943 252.399 35.3112 252.123 34.6686 251.783C33.9506 251.575 33.2677 251.299 32.6253 250.959C31.9066 250.75 31.2232 250.474 30.5802 250.134C29.862 249.925 29.1789 249.649 28.5363 249.309C27.8181 249.1 27.135 248.824 26.4924 248.484C25.7741 248.276 25.091 248 24.4484 247.66C23.7304 247.451 23.0475 247.175 22.405 246.835C21.6864 246.627 21.0029 246.35 20.36 246.01C19.6418 245.802 18.9587 245.525 18.3161 245.185C17.5978 244.977 16.9147 244.701 16.2721 244.361C15.5539 244.152 14.8708 243.876 14.2282 243.536C13.5102 243.327 12.8273 243.051 12.1848 242.712C11.4662 242.503 10.7827 242.227 10.1398 241.887C9.42157 241.678 8.73847 241.402 8.09585 241.062C3.24754 239.654 0 235.163 0 228.769Z" fill="#1E212A"/>
<rect width="672" height="35" rx="17.5" transform="matrix(0.94693 -0.321439 0 1 163.524 277.246)" fill="#95B2B8"/>
<mask id="mask0_1_40" style="mask-type:alpha" maskUnits="userSpaceOnUse" x="10" y="1" width="772" height="272">
<path d="M171.597 272.696L10.998 212.679L623.591 1.78983L781.913 65.5326L171.597 272.696Z" fill="#1E212A"/>
</mask>
<g mask="url(#mask0_1_40)">
<path fill-rule="evenodd" clip-rule="evenodd" d="M957.918 -106.408C956.366 -106.988 954.008 -106.688 952.651 -105.738C951.294 -104.787 951.451 -103.547 953.003 -102.966L1093.5 -50.4354C1095.06 -49.8551 1097.41 -50.1552 1098.77 -51.1055C1100.13 -52.0558 1099.97 -53.2966 1098.42 -53.8768L957.918 -106.408ZM843.863 -66.8979C842.311 -67.4781 839.952 -67.1781 838.595 -66.2278C837.238 -65.2775 837.396 -64.0367 838.948 -63.4564L979.448 -10.9253C981 -10.3451 983.359 -10.6451 984.716 -11.5954C986.073 -12.5458 985.915 -13.7866 984.363 -14.3668L843.863 -66.8979ZM729.807 -28.3878C728.255 -28.9681 725.897 -28.6681 724.539 -27.7177C723.182 -26.7674 723.34 -25.5266 724.892 -24.9464L865.393 27.5847C866.945 28.165 869.303 27.865 870.66 26.9146C872.018 25.9643 871.86 24.7235 870.308 24.1433L729.807 -28.3878ZM615.751 11.1222C614.199 10.542 611.841 10.842 610.484 11.7924C609.127 12.7427 609.284 13.9835 610.836 14.5637L751.337 67.0948C752.889 67.675 755.247 67.375 756.605 66.4247C757.962 65.4744 757.804 64.2336 756.252 63.6534L615.751 11.1222ZM161.578 166.062C162.935 165.112 165.294 164.812 166.846 165.392L307.346 217.923C308.898 218.503 309.056 219.744 307.699 220.695C306.342 221.645 303.983 221.945 302.432 221.365L161.931 168.834C160.379 168.253 160.221 167.013 161.578 166.062ZM52.7901 203.902C51.2382 203.322 48.8799 203.622 47.5226 204.572C46.1654 205.523 46.3233 206.763 47.8752 207.344L188.376 259.875C189.928 260.455 192.286 260.155 193.643 259.205C195.001 258.254 194.843 257.014 193.291 256.433L52.7901 203.902ZM-66.533 244.082C-65.1758 243.132 -62.8175 242.832 -61.2655 243.412L79.2353 295.943C80.7872 296.524 80.9451 297.764 79.5879 298.715C78.2307 299.665 75.8723 299.965 74.3204 299.385L-66.1805 246.854C-67.7324 246.273 -67.8902 245.033 -66.533 244.082ZM-175.321 281.922C-176.873 281.342 -179.231 281.642 -180.589 282.592C-181.946 283.543 -181.788 284.784 -180.236 285.364L-39.7353 337.895C-38.1834 338.475 -35.825 338.175 -34.4678 337.225C-33.1106 336.274 -33.2685 335.034 -34.8204 334.453L-175.321 281.922ZM-294.644 320.103C-293.287 319.152 -290.929 318.852 -289.377 319.432L-148.876 371.964C-147.324 372.544 -147.166 373.785 -148.523 374.735C-149.881 375.685 -152.239 375.985 -153.791 375.405L-294.292 322.874C-295.844 322.294 -296.002 321.053 -294.644 320.103ZM-408.7 358.613C-407.343 357.662 -404.984 357.362 -403.433 357.943L-262.932 410.474C-261.38 411.054 -261.222 412.295 -262.579 413.245C-263.936 414.195 -266.295 414.495 -267.847 413.915L-408.347 361.384C-409.899 360.804 -410.057 359.563 -408.7 358.613ZM275.634 126.552C276.991 125.602 279.349 125.302 280.901 125.882L421.402 178.413C422.954 178.993 423.112 180.234 421.755 181.184C420.397 182.135 418.039 182.435 416.487 181.855L275.986 129.323C274.434 128.743 274.277 127.502 275.634 126.552ZM389.69 88.042C391.047 87.0917 393.405 86.7917 394.957 87.3719L535.458 139.903C537.01 140.483 537.168 141.724 535.81 142.674C534.453 143.625 532.095 143.925 530.543 143.344L390.042 90.8134C388.49 90.2332 388.332 88.9924 389.69 88.042ZM503.745 48.532C505.102 47.5817 507.461 47.2816 509.013 47.8619L649.513 100.393C651.065 100.973 651.223 102.214 649.866 103.164C648.509 104.115 646.151 104.415 644.599 103.834L504.098 51.3034C502.546 50.7231 502.388 49.4823 503.745 48.532Z" fill="#CFD3D6"/>
</g>
</svg>
