<svg width="801" height="313" viewBox="0 0 801 313" fill="none" xmlns="http://www.w3.org/2000/svg">
<path fill-rule="evenodd" clip-rule="evenodd" d="M0.321289 228.985C0.321289 219.32 7.7405 208.966 16.8926 205.86L620.087 1.10275C624.081 -0.253035 627.745 -0.00460999 630.607 1.50936C631.325 1.71787 632.008 1.99406 632.651 2.33409C633.369 2.54253 634.051 2.81861 634.694 3.15847C635.412 3.36701 636.096 3.64329 636.739 3.98346C637.457 4.19198 638.14 4.46817 638.783 4.80819C639.501 5.01671 640.184 5.29289 640.827 5.6329C641.545 5.84141 642.228 6.1176 642.871 6.45761C643.589 6.66606 644.272 6.94213 644.914 7.282C645.633 7.49055 646.316 7.76683 646.959 8.107C647.677 8.31552 648.36 8.5917 649.003 8.93172C649.721 9.14024 650.404 9.41643 651.047 9.75645C651.765 9.96496 652.448 10.2411 653.091 10.5811C653.809 10.7896 654.492 11.0657 655.134 11.4055C655.853 11.6141 656.536 11.8904 657.179 12.2305C657.897 12.4391 658.581 12.7152 659.223 13.0553C659.941 13.2638 660.625 13.54 661.267 13.88C661.985 14.0885 662.669 14.3647 663.311 14.7047C664.029 14.9131 664.712 15.1892 665.354 15.529C666.073 15.7376 666.757 16.0139 667.399 16.3541C668.118 16.5626 668.801 16.8388 669.443 17.1788C670.162 17.3873 670.845 17.6635 671.487 18.0035C672.206 18.212 672.889 18.4882 673.531 18.8282C674.249 19.0366 674.932 19.3127 675.575 19.6526C676.293 19.8611 676.977 20.1374 677.62 20.4776C678.338 20.6861 679.021 20.9623 679.664 21.3023C680.382 21.5109 681.065 21.787 681.708 22.127C682.426 22.3355 683.108 22.6116 683.751 22.9514C684.469 23.16 685.153 23.4363 685.796 23.7765C686.514 23.985 687.197 24.2612 687.84 24.6012C688.558 24.8097 689.241 25.0858 689.884 25.4259C690.602 25.6344 691.285 25.9106 691.928 26.2506C692.646 26.459 693.329 26.7351 693.971 27.075C694.69 27.2835 695.373 27.5598 696.016 27.9C696.734 28.1085 697.418 28.3847 698.06 28.7247C698.778 28.9332 699.461 29.2094 700.104 29.5494C700.822 29.7579 701.505 30.0341 702.148 30.3741C702.866 30.5825 703.549 30.8586 704.191 31.1985C704.91 31.4071 705.593 31.6833 706.236 32.0235C706.955 32.232 707.638 32.5082 708.28 32.8482C708.999 33.0568 709.682 33.333 710.325 33.6731C711.043 33.8816 711.726 34.1577 712.368 34.4977C713.086 34.7061 713.769 34.9822 714.411 35.3221C715.13 35.5306 715.814 35.8069 716.457 36.1471C717.175 36.3556 717.858 36.6318 718.501 36.9718C719.219 37.1803 719.902 37.4565 720.544 37.7965C721.263 38.0051 721.946 38.2812 722.588 38.6212C723.306 38.8297 723.989 39.1058 724.632 39.4456C725.35 39.6542 726.034 39.9305 726.677 40.2706C727.395 40.4791 728.078 40.7553 728.721 41.0953C729.439 41.3038 730.122 41.58 730.765 41.92C731.483 42.1286 732.166 42.4047 732.809 42.7448C733.527 42.9532 734.209 43.2293 734.852 43.5691C735.571 43.7777 736.254 44.054 736.897 44.3942C737.615 44.6027 738.298 44.8789 738.941 45.2189C739.659 45.4274 740.342 45.7036 740.985 46.0436C741.703 46.2522 742.386 46.5283 743.029 46.8683C743.747 47.0768 744.43 47.3529 745.072 47.6927C745.791 47.9013 746.474 48.1776 747.117 48.5177C747.835 48.7263 748.519 49.0024 749.161 49.3424C749.879 49.5509 750.562 49.8271 751.205 50.1672C751.923 50.3757 752.606 50.6519 753.249 50.9919C753.967 51.2003 754.65 51.4764 755.292 51.8162C756.011 52.0248 756.695 52.3011 757.337 52.6413C758.056 52.8498 758.739 53.126 759.381 53.466C760.1 53.6745 760.783 53.9507 761.425 54.2907C762.143 54.4992 762.827 54.7754 763.469 55.1154C764.187 55.3238 764.87 55.5999 765.513 55.9398C766.231 56.1483 766.915 56.4246 767.558 56.7648C768.276 56.9733 768.959 57.2495 769.602 57.5895C770.32 57.798 771.003 58.0742 771.646 58.4142C772.364 58.6227 773.046 58.8987 773.689 59.2386C774.407 59.4472 775.091 59.7234 775.734 60.0636C776.452 60.2722 777.135 60.5483 777.778 60.8884C778.496 61.0969 779.179 61.3731 779.822 61.7131C780.54 61.9216 781.223 62.1978 781.866 62.5378C782.584 62.7462 783.267 63.0223 783.909 63.3622C784.628 63.5707 785.311 63.847 785.954 64.1872C786.672 64.3957 787.355 64.6719 787.998 65.0119C788.716 65.2204 789.399 65.4966 790.042 65.8366C790.76 66.0451 791.443 66.3213 792.086 66.6613C796.934 68.0689 800.182 72.5598 800.182 78.9542C800.182 88.6192 792.763 98.9727 783.611 102.079L180.416 306.836C176.422 308.192 172.758 307.944 169.897 306.43C169.178 306.221 168.495 305.945 167.853 305.605C167.134 305.396 166.451 305.12 165.809 304.78C165.091 304.572 164.407 304.296 163.765 303.956C163.047 303.747 162.364 303.471 161.721 303.131C161.003 302.923 160.319 302.646 159.676 302.306C158.958 302.098 158.275 301.822 157.633 301.482C156.914 301.273 156.231 300.997 155.589 300.657C154.87 300.448 154.187 300.172 153.545 299.832C152.827 299.624 152.144 299.348 151.501 299.008C150.783 298.799 150.099 298.523 149.456 298.183C148.738 297.974 148.055 297.698 147.412 297.358C146.694 297.149 146.011 296.873 145.368 296.533C144.65 296.325 143.967 296.049 143.325 295.709C142.606 295.5 141.923 295.224 141.28 294.884C140.562 294.675 139.879 294.399 139.236 294.059C138.518 293.851 137.835 293.574 137.192 293.234C136.474 293.026 135.791 292.75 135.148 292.41C134.43 292.201 133.747 291.925 133.105 291.585C132.386 291.377 131.703 291.1 131.06 290.76C130.341 290.552 129.658 290.276 129.016 289.936C128.298 289.727 127.614 289.451 126.972 289.111C126.254 288.902 125.571 288.626 124.928 288.286C124.21 288.078 123.527 287.802 122.885 287.462C122.166 287.253 121.482 286.977 120.84 286.637C120.121 286.428 119.438 286.152 118.796 285.812C118.077 285.603 117.394 285.327 116.752 284.987C116.033 284.779 115.35 284.503 114.708 284.163C113.99 283.954 113.307 283.678 112.664 283.338C111.946 283.13 111.262 282.853 110.619 282.513C109.901 282.305 109.218 282.029 108.575 281.689C107.857 281.48 107.174 281.204 106.531 280.864C105.813 280.655 105.13 280.379 104.487 280.039C103.769 279.831 103.087 279.555 102.444 279.215C101.725 279.006 101.042 278.73 100.399 278.39C99.6808 278.181 98.9977 277.905 98.3551 277.565C97.6369 277.356 96.9538 277.08 96.3112 276.74C95.5929 276.532 94.9098 276.256 94.2672 275.916C93.5492 275.707 92.8663 275.431 92.2238 275.091C91.5052 274.883 90.8217 274.606 90.1788 274.266C89.4605 274.058 88.7773 273.781 88.1346 273.441C87.4165 273.233 86.7335 272.957 86.091 272.617C85.3728 272.408 84.6897 272.132 84.047 271.792C83.329 271.584 82.6462 271.307 82.0037 270.968C81.2851 270.759 80.6016 270.483 79.9586 270.143C79.2404 269.934 78.5573 269.658 77.9147 269.318C77.1965 269.109 76.5134 268.833 75.8708 268.493C75.1526 268.285 74.4695 268.008 73.8269 267.668C73.1088 267.46 72.4259 267.184 71.7834 266.844C71.0648 266.635 70.3813 266.359 69.7384 266.019C69.0202 265.81 68.3371 265.534 67.6945 265.194C66.9762 264.986 66.2931 264.71 65.6505 264.37C64.9323 264.161 64.2492 263.885 63.6066 263.545C62.8886 263.336 62.2057 263.06 61.5633 262.721C60.8447 262.512 60.1612 262.236 59.5183 261.896C58.8 261.687 58.1169 261.411 57.4743 261.071C56.756 260.862 56.0729 260.586 55.4303 260.246C54.7123 260.038 54.0294 259.762 53.3869 259.422C52.6683 259.213 51.9849 258.937 51.3419 258.597C50.6237 258.388 49.9406 258.112 49.298 257.772C48.5797 257.563 47.8967 257.287 47.254 256.947C46.5358 256.739 45.8527 256.463 45.2101 256.123C44.4921 255.914 43.8092 255.638 43.1668 255.298C42.4482 255.09 41.7647 254.813 41.1217 254.473C40.4035 254.265 39.7204 253.988 39.0778 253.648C38.3595 253.44 37.6764 253.164 37.0338 252.824C36.3156 252.615 35.6325 252.339 34.9899 251.999C34.2719 251.791 33.589 251.514 32.9465 251.175C32.2279 250.966 31.5445 250.69 30.9015 250.35C30.1833 250.141 29.5002 249.865 28.8576 249.525C28.1394 249.316 27.4563 249.04 26.8137 248.7C26.0954 248.492 25.4123 248.215 24.7697 247.875C24.0517 247.667 23.3688 247.391 22.7263 247.051C22.0077 246.842 21.3242 246.566 20.6813 246.226C19.9631 246.018 19.28 245.741 18.6374 245.401C17.9191 245.193 17.236 244.917 16.5934 244.577C15.8752 244.368 15.1921 244.092 14.5494 243.752C13.8314 243.543 13.1486 243.267 12.5061 242.928C11.7875 242.719 11.104 242.443 10.4611 242.102C9.74286 241.894 9.05976 241.618 8.41714 241.278C3.56883 239.87 0.321289 235.379 0.321289 228.985Z" fill="#1E212A"/>
<rect width="672" height="35" rx="17.5" transform="matrix(0.94693 -0.321439 0 1 163.845 277.462)" fill="#95B2B8"/>
<mask id="mask0_1_2060" style="mask-type:alpha" maskUnits="userSpaceOnUse" x="11" y="2" width="772" height="271">
<path d="M171.918 272.912L11.3193 212.895L623.912 2.00577L782.234 65.7485L171.918 272.912Z" fill="#1E212A"/>
</mask>
<g mask="url(#mask0_1_2060)">
<path fill-rule="evenodd" clip-rule="evenodd" d="M1123.01 -163.704C1121.46 -164.285 1119.1 -163.985 1117.74 -163.034C1116.39 -162.084 1116.54 -160.843 1118.09 -160.263L1258.6 -107.732C1260.15 -107.151 1262.51 -107.452 1263.86 -108.402C1265.22 -109.352 1265.06 -110.593 1263.51 -111.173L1123.01 -163.704ZM1008.95 -124.194C1007.4 -124.774 1005.04 -124.474 1003.69 -123.524C1002.33 -122.574 1002.49 -121.333 1004.04 -120.753L1144.54 -68.2217C1146.09 -67.6414 1148.45 -67.9415 1149.81 -68.8918C1151.16 -69.8421 1151.01 -71.0829 1149.45 -71.6632L1008.95 -124.194ZM894.898 -85.6842C893.346 -86.2644 890.988 -85.9644 889.631 -85.0141C888.274 -84.0637 888.432 -82.823 889.984 -82.2427L1030.48 -29.7116C1032.04 -29.1314 1034.39 -29.4314 1035.75 -30.3817C1037.11 -31.3321 1036.95 -32.5728 1035.4 -33.1531L894.898 -85.6842ZM780.843 -46.1741C779.291 -46.7544 776.932 -46.4543 775.575 -45.504C774.218 -44.5537 774.376 -43.3129 775.928 -42.7327L916.429 9.79845C917.981 10.3787 920.339 10.0787 921.696 9.12834C923.053 8.17801 922.896 6.93723 921.344 6.35699L780.843 -46.1741ZM326.665 108.766C328.022 107.816 330.381 107.516 331.933 108.096L472.434 160.627C473.985 161.207 474.143 162.448 472.786 163.398C471.429 164.349 469.07 164.649 467.519 164.068L327.018 111.537C325.466 110.957 325.308 109.716 326.665 108.766ZM217.877 146.606C216.325 146.026 213.967 146.326 212.61 147.276C211.253 148.226 211.41 149.467 212.962 150.047L353.463 202.578C355.015 203.159 357.373 202.859 358.731 201.908C360.088 200.958 359.93 199.717 358.378 199.137L217.877 146.606ZM98.5559 186.786C99.9131 185.836 102.271 185.536 103.823 186.116L244.324 238.647C245.876 239.227 246.034 240.468 244.677 241.418C243.32 242.369 240.961 242.669 239.409 242.089L98.9084 189.557C97.3565 188.977 97.1987 187.736 98.5559 186.786ZM-10.2324 224.626C-11.7843 224.046 -14.1426 224.346 -15.4998 225.296C-16.8571 226.246 -16.6992 227.487 -15.1473 228.067L125.354 280.599C126.905 281.179 129.264 280.879 130.621 279.928C131.978 278.978 131.82 277.737 130.268 277.157L-10.2324 224.626ZM-129.556 262.806C-128.199 261.856 -125.841 261.556 -124.289 262.136L16.2119 314.667C17.7639 315.247 17.9217 316.488 16.5645 317.439C15.2073 318.389 12.849 318.689 11.297 318.109L-129.204 265.578C-130.756 264.997 -130.914 263.757 -129.556 262.806ZM-243.612 301.316C-242.255 300.366 -239.896 300.066 -238.345 300.646L-97.8437 353.177C-96.2918 353.758 -96.1339 354.998 -97.4911 355.949C-98.8484 356.899 -101.207 357.199 -102.759 356.619L-243.259 304.088C-244.811 303.507 -244.969 302.267 -243.612 301.316ZM-357.345 341.949C-355.988 340.999 -353.629 340.699 -352.077 341.279L-211.577 393.81C-210.025 394.391 -209.867 395.631 -211.224 396.582C-212.581 397.532 -214.94 397.832 -216.492 397.252L-356.992 344.721C-358.544 344.141 -358.702 342.9 -357.345 341.949ZM-465.809 381.912C-467.361 381.332 -469.72 381.632 -471.077 382.582C-472.434 383.533 -472.276 384.774 -470.724 385.354L-330.224 437.885C-328.672 438.465 -326.313 438.165 -324.956 437.215C-323.599 436.264 -323.757 435.024 -325.309 434.443L-465.809 381.912ZM440.721 69.2558C442.078 68.3054 444.436 68.0054 445.988 68.5856L586.489 121.117C588.041 121.697 588.199 122.938 586.842 123.888C585.484 124.838 583.126 125.138 581.574 124.558L441.073 72.0271C439.521 71.4469 439.364 70.2061 440.721 69.2558ZM554.776 30.7457C556.134 29.7953 558.492 29.4953 560.044 30.0756L700.545 82.6067C702.097 83.1869 702.255 84.4277 700.897 85.378C699.54 86.3284 697.182 86.6284 695.63 86.0481L555.129 33.517C553.577 32.9368 553.419 31.696 554.776 30.7457ZM668.837 -8.76436C670.194 -9.71469 672.552 -10.0147 674.104 -9.43446L814.605 43.0966C816.157 43.6769 816.315 44.9177 814.957 45.868C813.6 46.8183 811.242 47.1183 809.69 46.5381L669.189 -5.993C667.637 -6.57324 667.479 -7.81403 668.837 -8.76436Z" fill="#CFD3D6"/>
</g>
</svg>
